<svg width="183" height="158" viewBox="0 0 183 158" fill="none" xmlns="http://www.w3.org/2000/svg">
<path d="M179 149.701C181.209 149.701 183 151.492 183 153.701C183 155.91 181.209 157.701 179 157.701H4.99983C2.79069 157.701 0.999831 155.91 0.999831 153.701C0.999831 151.492 2.79069 149.701 4.99983 149.701H179Z" fill="#132137"/>
<path d="M116.918 0L116.988 0.000976562C136.662 0.278039 152.382 16.6037 152.382 36.502C152.382 45.0653 149.476 52.9514 144.608 59.1855C162.453 66.2046 175 84.0388 175 104.756C175 131.508 154.04 153.509 127.807 153.509C103.247 153.509 83.3025 134.213 80.868 109.803L80.7655 108.637C79.978 98.3204 79.6099 76.2974 79.4383 55.3564L89.4373 55.2744C89.6099 76.3275 89.9802 97.9706 90.7362 107.875L90.8182 108.814C92.7754 128.453 108.73 143.509 127.807 143.509C148.178 143.509 165 126.331 165 104.756C165 85.4999 151.569 69.7082 134.204 66.5742C132.258 66.2231 130.702 64.758 130.234 62.8369C129.766 60.9159 130.474 58.8991 132.04 57.6924C138.31 52.8618 142.382 45.1836 142.382 36.502C142.382 21.9124 130.903 10.2161 116.882 10H55.9998C53.2384 10 50.9998 7.76142 50.9998 5C50.9998 2.23858 53.2384 1.84535e-07 55.9998 0H116.918Z" fill="#132137"/>
<path d="M85.9961 30.9642C85.9961 27.8219 83.4489 25.2741 80.3067 25.2738C77.1642 25.2738 74.6162 27.8218 74.6162 30.9642C74.6165 34.1065 77.1643 36.6537 80.3067 36.6537V44.6537L79.9531 44.6488C72.6729 44.4645 66.8054 38.597 66.6211 31.3168L66.6162 30.9642C66.6162 23.4035 72.7459 17.2738 80.3067 17.2738L80.6592 17.2787C88.0568 17.4659 93.9961 23.5215 93.9961 30.9642L93.9912 31.3168C93.804 38.7142 87.7492 44.6534 80.3067 44.6537V36.6537C83.4487 36.6534 85.9958 34.1063 85.9961 30.9642Z" fill="#76ABAE"/>
<path d="M20.3797 79.1151C20.3797 75.9728 17.8325 73.4249 14.6903 73.4246C11.5478 73.4246 8.99983 75.9726 8.99983 79.1151C9.0001 82.2573 11.548 84.8045 14.6903 84.8045V92.8045L14.3367 92.7996C7.05648 92.6154 1.189 86.7479 1.00471 79.4676L0.999831 79.1151C0.999831 71.5543 7.12951 65.4246 14.6903 65.4246L15.0428 65.4295C22.4404 65.6168 28.3797 71.6723 28.3797 79.1151L28.3748 79.4676C28.1876 86.865 22.1328 92.8043 14.6903 92.8045V84.8045C17.8323 84.8043 20.3795 82.2571 20.3797 79.1151Z" fill="#132137"/>
<path d="M132.259 106.495C132.259 103.353 129.711 100.805 126.569 100.805C123.427 100.805 120.879 103.352 120.879 106.495C120.879 109.637 123.427 112.184 126.569 112.184V120.184L126.216 120.18C118.935 119.995 113.068 114.128 112.884 106.847L112.879 106.495C112.879 98.9342 119.008 92.8045 126.569 92.8045L126.922 92.8094C134.319 92.9967 140.259 99.0522 140.259 106.495L140.254 106.847C140.067 114.245 134.012 120.184 126.569 120.184V112.184C129.711 112.184 132.258 109.637 132.259 106.495Z" fill="#76ABAE"/>
<path d="M50.8143 149.925V45.3575L66.6199 29.5518C68.182 27.9897 70.7151 27.9897 72.2772 29.5518C73.8388 31.1138 73.8388 33.6461 72.2772 35.2081L58.8143 48.671V149.925C58.8142 152.134 57.0233 153.925 54.8143 153.925C52.6052 153.925 50.8144 152.134 50.8143 149.925ZM66.3924 149.925V102.967H116.183L116.389 102.972C118.502 103.079 120.183 104.827 120.183 106.967C120.183 109.107 118.502 110.854 116.389 110.961L116.183 110.967H74.3924V149.925C74.3923 152.134 72.6015 153.925 70.3924 153.925C68.1834 153.925 66.3925 152.134 66.3924 149.925Z" fill="#76ABAE"/>
<path d="M44.9139 150.397V105.61L25.0712 85.7661L24.9217 85.6235C23.3516 84.2052 20.9281 84.253 19.4149 85.7661C17.8529 87.328 17.8522 89.8602 19.4139 91.4223L36.9139 108.922V150.397C36.914 152.606 38.7048 154.397 40.9139 154.397C43.123 154.397 44.9139 152.606 44.9139 150.397Z" fill="#132137"/>
<path d="M170 149.701L170.206 149.706C172.319 149.813 174 151.561 174 153.701C174 155.841 172.319 157.589 170.206 157.696L170 157.701H4.77637C2.56723 157.701 0.776367 155.91 0.776367 153.701C0.776367 151.492 2.56723 149.701 4.77637 149.701H170Z" fill="#132137"/>
</svg>
